<svg width="130" height="105" viewBox="0 0 130 105" fill="none" xmlns="http://www.w3.org/2000/svg">
<line x1="68.084" y1="2.18557e-08" x2="68.084" y2="88.6544" stroke="white"/>
<rect x="47.7065" y="98.1956" width="39.3578" height="6.36086" fill="white"/>
<path d="M49.4654 94.8145H51.0974V95.6545H48.3214V90.5665H51.0334V91.4065H49.4654V92.6465H50.8014V93.4865H49.4654V94.8145ZM58.6828 90.5665H59.7308V95.6545H58.7068L57.5948 92.6065V95.6545H56.5548V90.5665H57.5868L58.6828 93.6065V90.5665ZM66.5495 94.8145H68.1815V95.6545H65.4055V90.5665H68.1175V91.4065H66.5495V92.6465H67.8855V93.4865H66.5495V94.8145ZM74.6469 95.6545H73.6389V90.5665H74.8869L75.7269 93.4465L76.5669 90.5665H77.8149V95.6545H76.8069V92.2385L76.1509 94.5505H75.3029L74.6469 92.2465V95.6545ZM85.5773 95.6545H84.4333V94.0065L83.1533 90.5665H84.3213L85.0013 92.9585L85.6333 90.5665H86.8013L85.5773 94.0145V95.6545Z" fill="white"/>
<circle cx="67.3853" cy="61.8199" r="40.1468" stroke="white" stroke-width="2"/>
<circle cx="67.3854" cy="60.6269" r="27.0275" stroke="white" stroke-width="2"/>
<line y1="56.7478" x2="130" y2="56.7478" stroke="white"/>
<line x1="59.6326" y1="56.7478" x2="75.1372" y2="56.7478" stroke="black"/>
<line x1="68.084" y1="48.5012" x2="68.084" y2="64.4034" stroke="black"/>
</svg>
